<svg xmlns="http://www.w3.org/2000/svg" style="display: none;">
  <symbol id="icon-tip" viewBox="0 0 32 32">
    <g clip-path="url(#clip0_79_67)">
      <path d="M16 30.2222C19.772 30.2222 23.3894 28.7238 26.0566 26.0566C28.7238 23.3894 30.2222 19.772 30.2222 16C30.2222 12.228 28.7238 8.61055 26.0566 5.94336C23.3894 3.27618 19.772 1.77777 16 1.77777C12.228 1.77777 8.61055 3.27618 5.94336 5.94336C3.27618 8.61055 1.77777 12.228 1.77777 16C1.77777 19.772 3.27618 23.3894 5.94336 26.0566C8.61055 28.7238 12.228 30.2222 16 30.2222ZM13.7778 20.4444H15.1111V16.8889H13.7778C13.0389 16.8889 12.4444 16.2944 12.4444 15.5555C12.4444 14.8167 13.0389 14.2222 13.7778 14.2222H16.4444C17.1833 14.2222 17.7778 14.8167 17.7778 15.5555V20.4444H18.2222C18.9611 20.4444 19.5555 21.0389 19.5555 21.7778C19.5555 22.5167 18.9611 23.1111 18.2222 23.1111H13.7778C13.0389 23.1111 12.4444 22.5167 12.4444 21.7778C12.4444 21.0389 13.0389 20.4444 13.7778 20.4444ZM16 8.88888C16.4715 8.88888 16.9237 9.07618 17.2571 9.40958C17.5905 9.74298 17.7778 10.1952 17.7778 10.6667C17.7778 11.1382 17.5905 11.5903 17.2571 11.9237C16.9237 12.2571 16.4715 12.4444 16 12.4444C15.5285 12.4444 15.0763 12.2571 14.7429 11.9237C14.4095 11.5903 14.2222 11.1382 14.2222 10.6667C14.2222 10.1952 14.4095 9.74298 14.7429 9.40958C15.0763 9.07618 15.5285 8.88888 16 8.88888Z" fill="currentColor"/>
    </g>
    <defs>
      <clipPath id="clip0_79_67">
        <rect width="28.4444" height="28.4444" fill="white" transform="translate(1.77777 1.77777)"/>
      </clipPath>
    </defs>
  </symbol>
</svg>