<svg xmlns="http://www.w3.org/2000/svg" style="display: none;">
  <symbol id="icon-restore" viewBox="0 0 32 32">
    <g clip-path="url(#clip0_79_76)">
      <path d="M5.94444 5.94444L4.05555 4.05555C3.21666 3.21666 1.77777 3.8111 1.77777 4.99444V11.1111C1.77777 11.85 2.37222 12.4444 3.1111 12.4444H9.22777C10.4167 12.4444 11.0111 11.0055 10.1722 10.1667L8.4611 8.45555C10.3889 6.52777 13.0555 5.33333 16 5.33333C21.8889 5.33333 26.6667 10.1111 26.6667 16C26.6667 21.8889 21.8889 26.6667 16 26.6667C13.7333 26.6667 11.6333 25.9611 9.90555 24.7555C9.09999 24.1944 7.99444 24.3889 7.42777 25.1944C6.8611 26 7.0611 27.1055 7.86666 27.6722C10.1778 29.2778 12.9833 30.2222 16 30.2222C23.8555 30.2222 30.2222 23.8555 30.2222 16C30.2222 8.14444 23.8555 1.77777 16 1.77777C12.0722 1.77777 8.51666 3.37222 5.94444 5.94444ZM16 8.88888C15.2611 8.88888 14.6667 9.48333 14.6667 10.2222V16C14.6667 16.3555 14.8055 16.6944 15.0555 16.9444L19.0555 20.9444C19.5778 21.4667 20.4222 21.4667 20.9389 20.9444C21.4555 20.4222 21.4611 19.5778 20.9389 19.0611L17.3278 15.45V10.2222C17.3278 9.48333 16.7333 8.88888 15.9944 8.88888H16Z" fill="currentColor"/>
    </g>
    <defs>
      <clipPath id="clip0_79_76">
        <rect width="28.4444" height="28.4444" fill="white" transform="translate(1.77777 1.77777)"/>
      </clipPath>
    </defs>
  </symbol>
</svg>