<svg xmlns="http://www.w3.org/2000/svg" style="display: none;">
  <symbol id="icon-eye" viewBox="0 0 32 32">
    <g clip-path="url(#clip0_79_62)">
      <path d="M16 3.55554C11.5111 3.55554 7.91668 5.59999 5.30001 8.03332C2.70001 10.4444 0.961126 13.3333 0.138904 15.3167C-0.0444295 15.7555 -0.0444295 16.2444 0.138904 16.6833C0.961126 18.6667 2.70001 21.5555 5.30001 23.9667C7.91668 26.4 11.5111 28.4444 16 28.4444C20.4889 28.4444 24.0833 26.4 26.7 23.9667C29.3 21.55 31.0389 18.6667 31.8667 16.6833C32.05 16.2444 32.05 15.7555 31.8667 15.3167C31.0389 13.3333 29.3 10.4444 26.7 8.03332C24.0833 5.59999 20.4889 3.55554 16 3.55554ZM8.00002 16C8.00002 13.8783 8.84287 11.8434 10.3432 10.3431C11.8435 8.84284 13.8783 7.99999 16 7.99999C18.1217 7.99999 20.1566 8.84284 21.6569 10.3431C23.1572 11.8434 24 13.8783 24 16C24 18.1217 23.1572 20.1565 21.6569 21.6568C20.1566 23.1571 18.1217 24 16 24C13.8783 24 11.8435 23.1571 10.3432 21.6568C8.84287 20.1565 8.00002 18.1217 8.00002 16ZM16 12.4444C16 14.4055 14.4056 16 12.4445 16C12.05 16 11.6722 15.9333 11.3167 15.8167C11.0111 15.7167 10.6556 15.9055 10.6667 16.2278C10.6833 16.6111 10.7389 16.9944 10.8445 17.3778C11.6056 20.2222 14.5333 21.9111 17.3778 21.15C20.2222 20.3889 21.9111 17.4611 21.15 14.6167C20.5333 12.3111 18.4945 10.7611 16.2278 10.6667C15.9056 10.6555 15.7167 11.0055 15.8167 11.3167C15.9333 11.6722 16 12.05 16 12.4444Z" fill="currentColor"/>
    </g>
    <defs>
      <clipPath id="clip0_79_62">
        <rect width="32" height="28.4444" fill="white" transform="translate(0 1.77777)"/>
      </clipPath>
    </defs>
  </symbol>
</svg>
