<svg xmlns="http://www.w3.org/2000/svg" style="display: none;">
  <symbol id="icon-font" viewBox="0 0 32 32">
    <path d="M17.875 3.3C17.5813 2.51875 16.8313 2 16 2C15.1687 2 14.4187 2.51875 14.125 3.3L5.6125 26H4C2.89375 26 2 26.8937 2 28C2 29.1063 2.89375 30 4 30H10C11.1063 30 12 29.1063 12 28C12 26.8937 11.1063 26 10 26H9.8875L11.0125 23H20.9875L22.1125 26H22C20.8937 26 20 26.8937 20 28C20 29.1063 20.8937 30 22 30H28C29.1063 30 30 29.1063 30 28C30 26.8937 29.1063 26 28 26H26.3875L17.875 3.3ZM19.4875 19H12.5125L16 9.69375L19.4875 19Z" fill="currentColor" />
  </symbol>
</svg>