<svg xmlns="http://www.w3.org/2000/svg" style="display: none;">
  <symbol id="icon-grid" viewBox="0 0 32 32">
    <path d="M4.36364 31.0173V0.996913C4.36364 0.444628 3.92949 0 3.39394 0H0.969697C0.434148 0 0 0.447715 0 1V31C0 31.5523 0.434148 32 0.969697 32H3.39394C3.92949 32 4.36364 31.5696 4.36364 31.0173Z" fill="currentColor" />
    <path d="M13.5758 31.0173V0.996913C13.5758 0.444628 13.1416 0 12.6061 0H10.1818C9.64627 0 9.21212 0.447715 9.21212 1V31C9.21212 31.5523 9.64627 32 10.1818 32H12.6061C13.1416 32 13.5758 31.5696 13.5758 31.0173Z" fill="currentColor" />
    <path d="M22.7879 31.0173V0.996913C22.7879 0.444628 22.3537 0 21.8182 0H19.3939C18.8584 0 18.4242 0.447715 18.4242 1V31C18.4242 31.5523 18.8584 32 19.3939 32H21.8182C22.3537 32 22.7879 31.5696 22.7879 31.0173Z" fill="currentColor" />
    <path d="M32 31.0173V0.996913C32 0.444628 31.5659 0 31.0303 0H28.6061C28.0705 0 27.6364 0.447715 27.6364 1V31C27.6364 31.5523 28.0705 32 28.6061 32H31.0303C31.5659 32 32 31.5696 32 31.0173Z" fill="currentColor" />
  </symbol>
</svg>